<svg width="1478" height="1381" viewBox="0 0 1478 1381" fill="none" xmlns="http://www.w3.org/2000/svg">
<path opacity="0.5" fill-rule="evenodd" clip-rule="evenodd" d="M1477.98 1056.93L1469.17 1057.12C1365.64 1057.12 1270.81 1016.52 1201.27 951.374C1131.96 886.464 1087.79 797.037 1085.28 699.197L1085.08 690.438C1085.08 634.444 1098.53 581.386 1122.56 533.919C1082.38 559.188 1039.19 580.599 993.596 597.583C990.702 610.811 988.429 624.259 986.787 637.903C984.703 654.936 983.661 672.455 983.661 690.438C983.661 817.824 1038.92 933.159 1128.27 1016.65C1217.63 1100.15 1341.08 1151.78 1477.43 1151.78L1477.43 1195C1328.31 1195 1193.28 1138.52 1095.58 1047.2C997.824 955.893 937.378 829.758 937.378 690.438C937.378 671.296 938.568 652.178 940.875 633.176C941.652 626.794 942.556 620.449 943.585 614.14C909.629 624.012 874.545 631.49 838.56 636.365C837.947 642.65 837.441 648.897 837.047 655.098C836.328 666.244 835.98 678.04 835.98 690.438C835.98 855.944 907.787 1005.79 1023.84 1114.22C1139.97 1222.71 1300.35 1289.83 1477.43 1289.83L1477.43 1332.88C1459.66 1332.88 1442.05 1332.25 1424.62 1331.02C1424.93 1334.82 1425.21 1338.66 1425.47 1342.52C1426.31 1355.57 1426.73 1368.2 1426.73 1380.37L1380.47 1380.37C1380.47 1367.97 1380.1 1356.22 1379.4 1345.05C1379.01 1338.81 1378.5 1332.53 1377.88 1326.21C1341.88 1321.34 1306.79 1313.86 1272.83 1304C1273.86 1310.33 1274.77 1316.7 1275.55 1323.1C1277.81 1341.62 1278.95 1360.71 1278.95 1380.37L1232.89 1380.37L1232.87 1380.37C1232.87 1362.89 1231.77 1345.37 1229.67 1327.83C1228 1314.18 1225.72 1300.7 1222.81 1287.45C1178.02 1270.77 1135.55 1249.83 1095.98 1225.15C1118.72 1270.29 1131.46 1320.26 1131.46 1372.62L1131.27 1380.85L1085.18 1379.83L1085.16 1379.85L1085.18 1372.62C1085.18 1287.74 1046.98 1209.97 985.743 1152.89C924.279 1095.61 839.724 1059.08 747.28 1057.02L738.996 1057C643.427 1057 556.887 1093.2 494.283 1151.71C431.654 1210.22 392.91 1291.05 392.91 1380.34L346.651 1380.34C346.651 1279.12 390.579 1187.49 461.567 1121.14C532.555 1054.82 630.653 1013.78 738.996 1013.78L748.347 1013.96C804.633 1015.22 858.313 1027.72 906.714 1049.07C879.591 1011.46 856.614 971.022 838.394 928.335C824.224 925.628 809.82 923.501 795.204 921.966C776.974 920.02 758.222 919.046 738.975 919.046C602.629 919.046 479.181 970.677 389.813 1054.15C300.446 1137.64 245.183 1252.98 245.183 1380.37L198.924 1380.37C198.924 1241.04 259.371 1114.89 357.122 1023.61C454.848 932.278 589.855 875.804 738.975 875.804C759.462 875.804 779.925 876.916 800.264 879.072C807.105 879.799 813.907 880.645 820.67 881.608C810.1 849.874 802.093 817.087 796.873 783.457C790.147 782.884 783.461 782.412 776.824 782.044C764.894 781.372 752.269 781.047 738.999 781.047C561.851 781.047 401.47 848.112 285.414 956.565C169.283 1065.06 97.4515 1214.91 97.4515 1380.34L51.3911 1380.34C51.3911 1363.74 52.0642 1347.29 53.3862 1331.01C49.3063 1331.3 45.194 1331.56 41.0485 1331.79C27.084 1332.58 13.566 1332.98 0.544009 1332.98L0.544011 1289.76C13.814 1289.76 26.3896 1289.41 38.345 1288.76C45.0285 1288.39 51.7614 1287.91 58.5362 1287.33C63.7495 1253.71 71.7471 1220.93 82.3037 1189.21C75.5107 1190.17 68.6778 1191.02 61.8059 1191.75C42.0125 1193.86 21.5743 1194.93 0.540719 1194.93L0.540721 1151.9L0.540721 1151.87C19.2427 1151.87 37.9943 1150.85 56.7708 1148.88C71.3895 1147.33 85.8269 1145.19 100.012 1142.48C117.859 1100.63 140.277 1060.95 166.688 1023.98C118.373 1045.23 64.8772 1057.14 8.82991 1057.14L-0.000168271 1056.95L1.09114 1013.9L1.09114 1013.87L8.82991 1013.9C99.661 1013.9 182.927 978.208 244.018 920.992C305.333 863.568 344.424 784.569 346.631 698.2L346.656 690.46C346.656 601.172 307.913 520.319 245.283 461.828C182.654 403.315 96.114 367.117 0.570296 367.117L0.570298 323.898C108.913 323.898 206.986 364.939 277.999 431.262C348.987 497.609 392.915 589.261 392.915 690.46L392.716 699.22C391.37 751.785 377.997 801.922 355.16 847.133C395.409 821.795 438.683 800.33 484.369 783.308C487.265 770.075 489.54 756.622 491.182 742.973C493.266 725.94 494.308 708.421 494.308 690.438C494.308 563.052 439.045 447.716 349.677 364.221C260.334 280.726 136.887 229.095 0.540761 229.095L0.540763 185.876C149.66 185.876 284.692 242.351 382.393 333.678C480.145 424.983 540.566 551.117 540.566 690.438C540.566 709.579 539.401 728.698 537.094 747.7C536.316 754.086 535.411 760.436 534.382 766.748C568.348 756.873 603.441 749.39 639.436 744.513C640.05 738.227 640.556 731.979 640.95 725.777C641.669 714.631 642.017 702.835 642.017 690.437C642.017 524.931 570.21 375.089 454.154 266.66C338.023 158.16 177.642 91.0491 0.568966 91.0491L0.568968 48.0155C18.3241 48.0155 35.9216 48.6434 53.3376 49.8767C53.028 46.0734 52.7512 42.2399 52.5074 38.3756C51.6888 25.3288 51.2672 12.6991 51.2672 0.532916L97.5261 0.532918C97.5261 12.9309 97.8982 24.6799 98.5926 35.8497C98.9893 42.0863 99.4985 48.3689 100.117 54.6906C136.103 59.5607 171.184 67.0317 205.136 76.8928C204.105 70.5561 203.199 64.1822 202.418 57.7719C200.161 39.2793 199.02 20.1841 199.02 0.532809L245.105 0.532811C245.105 18.0058 246.197 35.5251 248.305 53.0676C249.969 66.7155 252.252 80.1942 255.153 93.4377C300.746 110.409 343.932 131.804 384.104 157.055C360.071 109.582 346.627 56.5184 346.627 0.532946L392.886 0.532948C392.886 89.8213 431.63 170.651 494.259 229.165C556.863 287.678 643.403 323.876 738.972 323.876L747.256 323.853C839.7 321.79 924.255 285.292 985.719 227.983C1046.98 170.906 1085.16 93.112 1085.16 8.24983L1085.13 1.01963L1131.22 -1.51584e-05L1131.24 -1.51573e-05L1131.44 8.24983C1131.44 104.977 1087.98 193.57 1018.26 258.549C948.786 323.296 853.069 364.569 748.323 366.909L738.972 367.095C679.062 367.095 622.285 354.546 571.491 332.112C598.527 369.642 621.435 409.985 639.609 452.57C653.769 455.274 668.162 457.398 682.766 458.932C700.997 460.879 719.748 461.852 738.996 461.852C875.342 461.852 998.79 410.221 1088.16 326.726C1177.52 243.254 1232.79 127.919 1232.79 0.532854L1279.05 0.532856C1279.05 139.853 1218.6 266.011 1120.85 357.292C1023.12 448.62 888.116 505.071 738.996 505.071C718.508 505.071 698.045 503.982 677.706 501.827C670.875 501.1 664.083 500.256 657.331 499.295C667.896 531.02 675.902 563.798 681.12 597.418C687.848 597.991 694.535 598.464 701.173 598.832C713.104 599.504 725.729 599.828 738.999 599.828C916.147 599.828 1076.53 532.741 1192.58 424.311C1308.71 315.811 1380.55 165.97 1380.55 0.532974L1426.63 0.532976C1426.63 17.1209 1425.96 33.5615 1424.64 49.8323C1428.7 49.5438 1432.8 49.286 1436.92 49.0588C1450.89 48.2941 1464.41 47.9001 1477.43 47.9001L1477.43 91.1191C1464.16 91.1191 1451.58 91.4667 1439.63 92.1156C1432.96 92.4856 1426.24 92.9607 1419.49 93.5373C1414.27 127.159 1406.28 159.935 1395.72 191.655C1402.49 190.694 1409.3 189.849 1416.14 189.121C1435.96 187.012 1456.39 185.946 1477.43 185.946L1477.43 229.003C1458.73 229.003 1439.97 230.022 1421.2 231.992C1406.6 233.546 1392.18 235.677 1378.01 238.386C1359.84 280.995 1336.93 321.354 1309.89 358.895C1360.7 336.438 1417.5 323.876 1477.43 323.876L1477.43 367.095C1381.86 367.095 1295.35 403.292 1232.72 461.806C1170.09 520.296 1131.34 601.149 1131.34 690.438L1131.37 698.178C1133.58 784.546 1172.64 863.545 1233.98 920.97C1295.07 978.209 1378.34 1013.87 1469.17 1013.87L1476.91 1013.85L1478 1056.91L1477.98 1056.93ZM686.279 641.117C687.602 657.396 688.276 673.843 688.276 690.437C688.276 702.627 687.854 715.256 687.035 728.326C686.795 732.145 686.519 735.934 686.212 739.693C703.634 738.457 721.238 737.828 738.999 737.828C752.045 737.828 765.563 738.222 779.553 738.987C783.639 739.212 787.693 739.469 791.716 739.756C790.394 723.486 789.721 707.047 789.721 690.461C789.721 678.272 790.143 665.642 790.962 652.572C791.203 648.746 791.479 644.95 791.787 641.184C774.372 642.419 756.776 643.047 739.023 643.047C725.977 643.047 712.459 642.653 698.47 641.889C694.374 641.663 690.311 641.405 686.279 641.117ZM1304.42 852.052C1348.7 893.44 1409.86 919.024 1477.43 919.024L1477.43 918.978L1477.43 875.736C1422.64 875.736 1373.03 854.995 1337.14 821.463C1301.22 787.93 1279.02 741.583 1279.02 690.392C1279.02 639.202 1301.22 592.877 1337.14 559.322C1373.03 525.789 1422.66 505.026 1477.43 505.026L1477.43 461.807C1409.86 461.807 1348.7 487.39 1304.42 528.779C1260.15 570.144 1232.76 627.29 1232.76 690.415C1232.76 753.541 1260.15 810.687 1304.42 852.052ZM1477.43 781.047C1450.66 781.047 1426.43 770.897 1408.87 754.513C1391.38 738.176 1380.54 715.512 1380.54 690.461C1380.54 665.387 1391.36 642.747 1408.87 626.409C1426.43 610.025 1450.69 599.875 1477.43 599.875L1477.43 643.094C1463.44 643.094 1450.76 648.401 1441.56 656.952C1432.34 665.573 1426.63 677.438 1426.63 690.461C1426.63 703.485 1432.34 715.35 1441.56 723.971C1450.74 732.545 1463.41 737.852 1477.43 737.852L1477.43 781.047ZM983.659 0.532856C983.659 63.6581 956.276 120.804 911.977 162.17C867.702 203.535 806.536 229.118 738.971 229.118C671.406 229.118 610.24 203.535 565.966 162.17C521.666 120.804 494.283 63.658 494.283 0.532835L540.542 0.532837C540.542 51.7004 562.766 98.071 598.657 131.603C634.572 165.159 684.155 185.899 738.946 185.899C793.738 185.899 843.345 165.159 879.236 131.603C915.127 98.071 937.326 51.7236 937.326 0.532854L983.61 0.532856L983.659 0.532856ZM807.556 64.585C825.093 48.178 835.957 25.5373 835.957 0.532856L789.722 0.532854C789.722 13.626 784.042 25.4678 774.865 34.042C765.638 42.6627 752.939 47.9926 738.999 47.9926C725.059 47.9926 712.36 42.6627 703.133 34.042C693.98 25.4446 688.3 13.6028 688.3 0.53285L642.041 0.532848C642.041 25.5373 652.905 48.2012 670.442 64.585C687.928 80.9456 712.161 91.0494 738.999 91.0494C765.812 91.0494 790.07 80.9456 807.556 64.585ZM879.292 1249.3C915.182 1282.83 937.382 1329.2 937.382 1380.37L937.431 1380.37L983.715 1380.37C983.715 1317.24 956.332 1260.09 912.032 1218.73C867.758 1177.36 806.592 1151.78 739.027 1151.78C671.462 1151.78 610.296 1177.36 566.021 1218.73C521.722 1260.09 494.339 1317.24 494.339 1380.37L540.597 1380.37C540.597 1329.18 562.822 1282.83 598.712 1249.3C634.603 1215.74 684.211 1195 739.002 1195C793.793 1195 843.376 1215.74 879.292 1249.3ZM789.7 1380.36C789.7 1367.29 784.02 1355.45 774.842 1346.86C765.615 1338.23 752.941 1332.9 738.976 1332.9C725.037 1332.9 712.337 1338.23 703.11 1346.86C693.958 1355.43 688.278 1367.27 688.278 1380.36L642.019 1380.36C642.019 1355.36 652.883 1332.72 670.419 1316.31C687.906 1299.97 712.164 1289.85 738.976 1289.85C765.814 1289.85 790.047 1299.95 807.534 1316.31C825.07 1332.72 835.934 1355.38 835.934 1380.36L789.7 1380.36ZM0.545616 875.804C55.3121 875.804 104.944 855.064 140.835 821.531C176.751 787.976 198.95 741.651 198.95 690.461C198.95 639.27 176.751 592.922 140.835 559.39C104.944 525.858 55.337 505.094 0.545632 505.094L0.545634 461.875C68.1108 461.875 129.277 487.459 173.551 528.847C217.826 570.212 245.209 627.359 245.209 690.484C245.209 753.609 217.826 810.755 173.551 852.12C129.277 893.509 68.1108 919.092 0.545614 919.092L0.545616 875.85L0.545616 875.804ZM36.4089 723.947C27.2315 732.521 14.532 737.828 0.542692 737.828L0.54269 781.023C27.2811 781.023 51.5392 770.873 69.1001 754.49C86.6363 738.106 97.5003 715.465 97.5003 690.437C97.5003 665.433 86.6363 642.769 69.1001 626.385C51.5392 610.001 27.3059 599.851 0.542698 599.851L0.542696 643.07C14.5569 643.07 27.2563 648.377 36.4089 656.928C45.5863 665.503 51.2662 677.367 51.2662 690.437C51.2662 703.531 45.5863 715.396 36.4089 723.947Z" fill="url(#paint0_linear_37_275)"/>
<defs>
<linearGradient id="paint0_linear_37_275" x1="1478" y1="690.426" x2="-0.00015225" y2="690.426" gradientUnits="userSpaceOnUse">
<stop stop-color="#5D9388"/>
<stop offset="1" stop-color="#42766C"/>
</linearGradient>
</defs>
</svg>
